<?xml version="1.0" encoding="utf-8"?>
<!-- Generator: Adobe Illustrator 21.1.0, SVG Export Plug-In . SVG Version: 6.00 Build 0)  -->
<svg version="1.1" id="Layer_1" xmlns="http://www.w3.org/2000/svg" xmlns:xlink="http://www.w3.org/1999/xlink" x="0px" y="0px"
	 viewBox="0 0 350.2 351" style="enable-background:new 0 0 350.2 351;" xml:space="preserve">
<style type="text/css">
	.st0{fill:#CC2127;}
</style>
<path class="st0" d="M246,15.6c71.7,29.3,127,119.4,94.8,216.5c-31.6,95.1-138,143.7-231.2,106.1C16,300.6-26.7,190.9,17.5,99.4
	C61.9,7.5,161.5-14,224.4,7.9c-17.9,25-21.2,55-29.7,84.1c-6.3-8.7-14.2-14.4-23.7-17.6c-22.7-7.4-43.8-2.8-63.6,9.2
	c-16.1,9.8-27.7,24-35.6,40.9c-13,27.6-18.5,56.7-12.1,86.6c7.9,36.6,31.1,61.7,66.2,73.4c49,16.3,95.2,9.1,133.7-26.5
	c30.8-28.5,41.2-64.7,29.7-105.8c-4.4-15.7-13.6-28.1-28.4-35.7c-7.3-3.7-10.7-2.2-12.7,5.7c-0.3,1.1-0.5,2.3-0.9,3.4
	c-3.2,8.2-2.1,15,3.6,22.5c10.4,13.9,10,30.4,6.8,46.6c-8,40.3-41.1,67.1-82.3,67c-8.1,0-16.4-0.6-24.3-2.3
	c-29.7-6.5-48.3-28-50.2-58.8c-1.5-23.9,2.5-47.2,13.6-68.8c5-9.8,11.5-18.4,21-24.2c9.4-5.8,19.4-7.8,30.1-4.4
	c13.4,4.2,21.3,17.3,17.9,31c-3.3,13.4-7.7,26.6-11.2,39.9c-1.8,6.7-3.4,13.6-4.2,20.5c-1.4,12.6,4.4,23.6,13.7,27.6
	c10.4,4.4,23.4,1,31.6-8.5c10.9-12.6,13.3-27.6,11.6-43.6c-0.4-4.1-1-8.4-2.6-12.2c-2.4-5.6-1.7-10.8-0.4-16.5
	c7.4-31.1,14.8-62.2,21.6-93.5c1.8-8.5,1.4-17.5,2-26.3C245.8,19.7,245.9,17.7,246,15.6z"/>
</svg>
