<?xml version="1.0" encoding="utf-8"?>
<!-- Generator: Adobe Illustrator 21.1.0, SVG Export Plug-In . SVG Version: 6.00 Build 0)  -->
<svg version="1.1" id="Layer_1" xmlns="http://www.w3.org/2000/svg" xmlns:xlink="http://www.w3.org/1999/xlink" x="0px" y="0px"
	 viewBox="0 0 299.1 92.4" style="enable-background:new 0 0 299.1 92.4;" xml:space="preserve">
<style type="text/css">
	.st0{fill:#303030;}
	.st1{fill:#60BB48;}
</style>
<path id="XMLID_678_" class="st0" d="M29.6,75.2C13.2,75.2,0,62.3,0,46.2c0-16.3,12.8-29,29.2-29c9.7,0,18.4,4.2,23.9,11.9
	c2.4,3.3,0,7.9-4.1,7.9h-4.2c-1.6,0-3.1-0.7-4-2c-2.7-3.7-6.5-5.6-11.6-5.6c-9.2,0-15.8,7-15.8,16.7S20.3,63,29.5,63
	c4.8,0,8.3-1.7,11.3-5.5c0.9-1.2,2.4-1.8,3.9-1.8h4.2c4.1,0,6.4,4.6,4.1,7.9C47.6,71.1,39.4,75.2,29.6,75.2z"/>
<path id="XMLID_674_" class="st0" d="M60.7,68.9V5c0-2.8,2.2-5,5-5H69c2.8,0,5,2.2,5,5v63.9c0,2.8-2.2,5-5,5h-3.3
	C62.9,73.9,60.7,71.7,60.7,68.9z"/>
<path id="XMLID_671_" class="st0" d="M126.6,68.9v-2.2c-5.3,6-10.6,8.5-18.4,8.5c-16.2,0-27.9-12.1-27.9-28.8
	c0-16.9,11.8-29.2,28.2-29.2c8,0,13.5,2.6,18.1,8.7v-2.4c0-2.8,2.2-5,5-5h2.2c2.8,0,5,2.2,5,5v45.4c0,2.8-2.2,5-5,5h-2.2
	C128.8,73.9,126.6,71.7,126.6,68.9z M108.9,29.4c-9.5,0-16.2,7.2-16.2,17.3c0,9.7,6.7,16.3,16.4,16.3c10.1,0,16.1-7.2,16.1-16.4
	C125.2,36.5,118.4,29.4,108.9,29.4z"/>
<path id="XMLID_665_" class="st0" d="M178,75.2c-6.8,0-12-2-17-6.5v18.7c0,2.8-2.2,5-5,5h-3.3c-2.8,0-5-2.2-5-5V23.5
	c0-2.8,2.2-5,5-5h2.2c2.8,0,5,2.2,5,5V25c4.3-5,10.7-7.8,18.2-7.8c16,0,27.6,12.1,27.6,28.8C205.7,62.8,194,75.2,178,75.2z
	 M177.4,29.4c-9.2,0-16.2,7.2-16.2,16.7c0,9.7,7,16.9,16.4,16.9c8.8,0,15.7-7.3,15.7-16.7C193.3,36.7,186.4,29.4,177.4,29.4z"/>
<path id="XMLID_645_" class="st1" d="M215.2,33.4V28c0-2.2,1.8-4,4-4h8.1c2.2,0,4,1.8,4,4v5.4c0,2.2-1.8,4-4,4h-8.1
	C216.9,37.4,215.2,35.6,215.2,33.4z M215.2,65.4v-4.9c0-2.2,1.8-3.9,3.9-3.9h8.1c2.2,0,3.9,1.8,3.9,3.9v4.9c0,2.2-1.8,3.9-3.9,3.9
	h-8.1C216.9,69.3,215.2,67.5,215.2,65.4z"/>
<path id="XMLID_527_" class="st1" d="M271.4,75.2c-6.8,0-12-2-17-6.5v18.7c0,2.8-2.2,5-5,5h-3.3c-2.8,0-5-2.2-5-5V23.5
	c0-2.8,2.2-5,5-5h2.2c2.8,0,5,2.2,5,5V25c4.3-5,10.7-7.8,18.2-7.8c16,0,27.6,12.1,27.6,28.8C299.1,62.8,287.4,75.2,271.4,75.2z
	 M270.8,29.4c-9.2,0-16.2,7.2-16.2,16.7c0,9.7,7,16.9,16.4,16.9c8.8,0,15.7-7.3,15.7-16.7C286.7,36.7,279.8,29.4,270.8,29.4z"/>
</svg>
